no_integral_motion
version=1
nRows=253
nColumns=3
inDegrees=yes
endheader
time	r_shoulder_elev	r_elbow_flex
6.75	0	20.04621903
6.76	0	20.07694658
6.77	0	20.11031219
6.78	0	20.1462705
6.79	0	20.18476789
6.8	0	20.22574798
6.81	0	20.26915707
6.82	0	20.31494921
6.83	0	20.36309073
6.84	0	20.41356393
6.85	0	20.46636994
6.86	0	20.52153048
6.87	0	20.57908855
6.88	0	20.63910805
6.89	0	20.7016723
6.9	0	20.76688165
6.91	0	20.83485026
6.92	0	20.90570216
6.93	0	20.97956696
6.94	0	21.05657522
6.95	0	21.13685382
6.96	0	21.22052153
6.97	0	21.30768498
6.98	0	21.39843511
6.99	0	21.49284443
7	0	21.59096507
7.01	0	21.69282772
7.02	0	21.79844149
7.03	0	21.90779474
7.04	0	22.02085671
7.05	0	22.13757998
7.06	0	22.25790357
7.07	0	22.38175651
7.08	0	22.50906176
7.09	0	22.63974026
7.1	0	22.77371498
7.11	0	22.91091465
7.12	0	23.05127717
7.13	0	23.19475243
7.14	0	23.34130446
7.15	0	23.49091286
7.16	0	23.6435733
7.17	0	23.79929733
7.18	0	23.9581113
7.19	0	24.12005458
7.2	0	24.28517707
7.21	0	24.45353627
7.22	0	24.6251939
7.23	0	24.80021241
7.24	0	24.97865131
7.25	0	25.16056374
7.26	0	25.34599329
7.27	0	25.53497127
7.28	0	25.7275145
7.29	0	25.9236238
7.3	0	26.1232832
7.31	0	26.32645984
7.32	0	26.53310473
7.33	0	26.74315404
7.34	0	26.95653124
7.35	0	27.17314956
7.36	0	27.39291502
7.37	0	27.61572962
7.38	0	27.84149467
7.39	0	28.0701141
7.4	0	28.30149756
7.41	0	28.53556309
7.42	0	28.77223947
7.43	0	29.01146785
7.44	0	29.25320282
7.45	0	29.49741276
7.46	0	29.74407952
7.47	0	29.99319735
7.48	0	30.24477132
7.49	0	30.49881509
7.5	0	30.75534839
7.51	0	31.01439406
7.52	0	31.27597508
7.53	0	31.54011148
7.54	0	31.80681749
7.55	0	32.07609888
7.56	0	32.34795081
7.57	0	32.62235664
7.58	0	32.89931573
7.59	0	33.17886386
7.6	0	33.46102485
7.61	0	33.7457995
7.62	0	34.03316354
7.63	0	34.32306679
7.64	0	34.61543367
7.65	0	34.91016483
7.66	0	35.20713992
7.67	0	35.50622132
7.68	0	35.8072586
7.69	0	36.11009365
7.7	0	36.41456596
7.71	0	36.7205181
7.72	0	37.02780091
7.73	0	37.33627818
7.74	0	37.64583078
7.75	0	37.95635978
7.76	0	38.26778862
7.77	0	38.58006414
7.78	0	38.89315643
7.79	0	39.20705764
7.8	0	39.52177958
7.81	0	39.83735049
7.82	0	40.15381098
7.83	0	40.47120946
7.84	0	40.78959717
7.85	0	41.10902316
7.86	0	41.42952941
7.87	0	41.75114636
7.88	0	42.07388902
7.89	0	42.39775387
7.9	0	42.72271673
7.91	0	43.04873158
7.92	0	43.37573052
7.93	0	43.70362474
7.94	0	44.03230656
7.95	0	44.36167855
7.96	0	44.69174166
7.97	0	45.02254
7.98	0	45.35414356
7.99	0	45.68661876
8	0	46.0199981
8.01	0	46.35427624
8.02	0	46.68940814
8.03	0	47.0253091
8.04	0	47.36185677
8.05	0	47.69889487
8.06	0	48.03623851
8.07	0	48.37368087
8.08	0	48.71100073
8.09	0	49.04797069
8.1	0	49.38436555
8.11	0	49.71997041
8.12	0	50.05458825
8.13	0	50.38804648
8.14	0	50.72020226
8.15	0	51.05094623
8.16	0	51.3802047
8.17	0	51.70793996
8.18	0	52.03414894
8.19	0	52.35886018
8.2	0	52.68212938
8.21	0	53.00403362
8.22	0	53.32466482
8.23	0	53.64412241
8.24	0	53.96250597
8.25	0	54.27990786
8.26	0	54.59640642
8.27	0	54.91205993
8.28	0	55.2269017
8.29	0	55.54093644
8.3	0	55.85413807
8.31	0	56.16644905
8.32	0	56.47778132
8.33	0	56.78801855
8.34	0	57.09701987
8.35	0	57.40462459
8.36	0	57.71065789
8.37	0	58.014937
8.38	0	58.31727774
8.39	0	58.61750095
8.4	0	58.91543861
8.41	0	59.2109393
8.42	0	59.50387277
8.43	0	59.79413345
8.44	0	60.08164271
8.45	0	60.36634978
8.46	0	60.64823136
8.47	0	60.92728999
8.48	0	61.20355115
8.49	0	61.47705944
8.5	0	61.74787393
8.51	0	62.01606295
8.52	0	62.28169859
8.53	0	62.54485121
8.54	0	62.80558417
8.55	0	63.06394907
8.56	0	63.31998171
8.57	0	63.57369892
8.58	0	63.82509639
8.59	0	64.0741477
8.6	0	64.32080429
8.61	0	64.56499671
8.62	0	64.8066367
8.63	0	65.04562026
8.64	0	65.28183142
8.65	0	65.51514643
8.66	0	65.74543837
8.67	0	65.97258174
8.68	0	66.19645697
8.69	0	66.41695454
8.7	0	66.63397854
8.71	0	66.84744957
8.72	0	67.05730682
8.73	0	67.26350921
8.74	0	67.46603569
8.75	0	67.66488457
8.76	0	67.860072
8.77	0	68.05162976
8.78	0	68.23960239
8.79	0	68.42404382
8.8	0	68.60501381
8.81	0	68.78257421
8.82	0	68.95678531
8.83	0	69.12770245
8.84	0	69.29537307
8.85	0	69.45983423
8.86	0	69.62111081
8.87	0	69.7792144
8.88	0	69.93414293
8.89	0	70.08588101
8.9	0	70.23440094
8.91	0	70.37966442
8.92	0	70.52162466
8.93	0	70.66022896
8.94	0	70.79542155
8.95	0	70.92714652
8.96	0	71.05535073
8.97	0	71.17998226
8.98	0	71.30092555
8.99	0	71.41802294
9	0	71.53114398
9.01	0	71.64019536
9.02	0	71.74516471
9.03	0	71.84616554
9.04	0	71.94337859
9.05	0	72.03701058
9.06	0	72.12727472
9.07	0	72.21437855
9.08	0	72.29851479
9.09	0	72.3798541
9.1	0	72.45853936
9.11	0	72.53468179
9.12	0	72.60835878
9.13	0	72.67961353
9.14	0	72.74845635
9.15	0	72.81486757
9.16	0	72.87880181
9.17	0	72.94019333
9.18	0	72.99896219
9.19	0	73.05502089
9.2	0	73.1082811
9.21	0	73.15866028
9.22	0	73.20608776
9.23	0	73.25051009
9.24	0	73.29189541
9.25	0	73.33023666
9.26	0	73.36555365
9.27	0	73.39789372
